<?xml version="1.0" encoding="UTF-8"?><svg id="Layer_2" xmlns="http://www.w3.org/2000/svg" viewBox="0 0 639.68 178.69"><defs><style>.cls-1{fill:#fff;stroke-width:0px;}</style></defs><g id="Layer_1-2"><g id="white-logo"><path class="cls-1" d="m183.98,177.32c-1.58-.91-2.81-2.17-3.71-3.76-.9-1.6-1.34-3.4-1.34-5.4s.45-3.8,1.34-5.4c.9-1.6,2.14-2.85,3.72-3.76,1.59-.91,3.36-1.37,5.32-1.37,1.53,0,2.93.27,4.2.81,1.27.54,2.35,1.34,3.25,2.4l-1.82,1.85c-1.47-1.63-3.31-2.44-5.52-2.44-1.46,0-2.77.34-3.95,1.03-1.18.69-2.1,1.63-2.76,2.84-.66,1.21-.99,2.55-.99,4.04s.33,2.84.99,4.04c.66,1.21,1.58,2.15,2.76,2.84,1.18.69,2.49,1.03,3.95,1.03,2.18,0,4.02-.82,5.52-2.47l1.82,1.85c-.9,1.06-1.98,1.86-3.26,2.41-1.28.55-2.68.82-4.21.82-1.96,0-3.73-.46-5.3-1.37Z"/><path class="cls-1" d="m217.95,178.45l-4.23-6.32c-.52.04-.93.06-1.23.06h-4.84v6.26h-2.8v-20.58h7.64c2.54,0,4.54.64,5.99,1.91,1.46,1.27,2.18,3.03,2.18,5.26,0,1.59-.37,2.94-1.12,4.06-.75,1.12-1.81,1.93-3.19,2.44l4.65,6.91h-3.05Zm-1.48-9.97c.93-.8,1.4-1.95,1.4-3.44s-.47-2.63-1.4-3.43-2.29-1.19-4.06-1.19h-4.76v9.26h4.76c1.77,0,3.12-.4,4.06-1.21Z"/><path class="cls-1" d="m243.52,175.9v2.56h-14.22v-20.58h13.83v2.56h-11.03v6.32h9.83v2.5h-9.83v6.64h11.42Z"/><path class="cls-1" d="m264.63,173.31h-10.42l-2.16,5.15h-2.88l8.88-20.58h2.77l8.9,20.58h-2.94l-2.16-5.15Zm-.98-2.35l-4.23-10.08-4.23,10.08h8.46Z"/><path class="cls-1" d="m279.64,160.43h-6.72v-2.56h16.21v2.56h-6.72v18.02h-2.77v-18.02Z"/><path class="cls-1" d="m296.27,157.87h2.8v20.58h-2.8v-20.58Z"/><path class="cls-1" d="m325.87,157.87l-8.6,20.58h-2.77l-8.62-20.58h3.02l7.06,16.91,7.11-16.91h2.8Z"/><path class="cls-1" d="m346.67,175.9v2.56h-14.22v-20.58h13.83v2.56h-11.03v6.32h9.83v2.5h-9.83v6.64h11.42Z"/><path class="cls-1" d="m368.35,177.97c-1.37-.48-2.45-1.1-3.23-1.87l1.04-2.29c.75.71,1.7,1.28,2.87,1.72,1.17.44,2.37.66,3.6.66,1.62,0,2.84-.29,3.64-.87s1.21-1.35,1.21-2.31c0-.71-.22-1.28-.66-1.72-.44-.44-.98-.78-1.62-1.01-.64-.23-1.55-.5-2.73-.79-1.48-.37-2.67-.74-3.57-1.12-.91-.37-1.68-.95-2.32-1.72-.64-.77-.97-1.82-.97-3.13,0-1.1.28-2.09.83-2.97.55-.88,1.39-1.59,2.51-2.12,1.12-.53,2.51-.79,4.17-.79,1.16,0,2.3.16,3.42.47,1.12.31,2.08.76,2.88,1.35l-.92,2.35c-.82-.55-1.7-.96-2.63-1.25-.93-.28-1.85-.43-2.74-.43-1.59,0-2.78.3-3.57.91-.79.61-1.19,1.39-1.19,2.35,0,.71.22,1.28.67,1.72.45.44,1,.78,1.67,1.03s1.56.5,2.7.78c1.47.37,2.66.75,3.55,1.12.9.37,1.67.94,2.31,1.71.64.76.97,1.79.97,3.09,0,1.08-.28,2.06-.84,2.95-.56.89-1.41,1.6-2.55,2.12-1.14.52-2.54.78-4.2.78-1.48,0-2.9-.24-4.27-.72Z"/><path class="cls-1" d="m391.89,177.32c-1.59-.91-2.83-2.17-3.74-3.78-.91-1.61-1.36-3.4-1.36-5.38s.45-3.77,1.36-5.38c.9-1.61,2.15-2.87,3.74-3.78,1.59-.91,3.37-1.37,5.35-1.37s3.73.46,5.32,1.37c1.59.91,2.83,2.17,3.72,3.76.9,1.6,1.34,3.4,1.34,5.4s-.45,3.8-1.34,5.4c-.9,1.6-2.14,2.85-3.72,3.76-1.59.91-3.36,1.37-5.32,1.37s-3.76-.46-5.35-1.37Zm9.22-2.28c1.15-.69,2.05-1.63,2.72-2.84.66-1.21.99-2.55.99-4.04s-.33-2.84-.99-4.04c-.66-1.21-1.57-2.15-2.72-2.84s-2.44-1.03-3.88-1.03-2.74.34-3.91,1.03c-1.17.69-2.08,1.63-2.74,2.84s-.99,2.55-.99,4.04.33,2.84.99,4.04,1.58,2.15,2.74,2.84c1.17.69,2.47,1.03,3.91,1.03s2.73-.34,3.88-1.03Z"/><path class="cls-1" d="m416,157.87h2.8v18.02h10.61v2.56h-13.41v-20.58Z"/><path class="cls-1" d="m438.4,176.34c-1.46-1.57-2.18-3.82-2.18-6.76v-11.7h2.8v11.58c0,4.41,1.84,6.62,5.52,6.62,1.79,0,3.16-.54,4.12-1.63.95-1.09,1.43-2.75,1.43-4.98v-11.58h2.71v11.7c0,2.96-.73,5.22-2.18,6.78-1.46,1.56-3.49,2.34-6.1,2.34s-4.65-.78-6.1-2.35Z"/><path class="cls-1" d="m466.14,160.43h-6.72v-2.56h16.21v2.56h-6.72v18.02h-2.77v-18.02Z"/><path class="cls-1" d="m482.78,157.87h2.8v20.58h-2.8v-20.58Z"/><path class="cls-1" d="m499.04,177.32c-1.59-.91-2.83-2.17-3.74-3.78-.91-1.61-1.36-3.4-1.36-5.38s.45-3.77,1.36-5.38c.91-1.61,2.15-2.87,3.74-3.78,1.59-.91,3.37-1.37,5.35-1.37s3.73.46,5.32,1.37c1.59.91,2.83,2.17,3.72,3.76.89,1.6,1.34,3.4,1.34,5.4s-.45,3.8-1.34,5.4c-.9,1.6-2.14,2.85-3.72,3.76-1.59.91-3.36,1.37-5.32,1.37s-3.76-.46-5.35-1.37Zm9.23-2.28c1.15-.69,2.05-1.63,2.71-2.84s.99-2.55.99-4.04-.33-2.84-.99-4.04-1.57-2.15-2.71-2.84-2.44-1.03-3.88-1.03-2.74.34-3.91,1.03c-1.17.69-2.08,1.63-2.74,2.84-.66,1.21-.99,2.55-.99,4.04s.33,2.84.99,4.04c.66,1.21,1.58,2.15,2.74,2.84,1.17.69,2.47,1.03,3.91,1.03s2.73-.34,3.88-1.03Z"/><path class="cls-1" d="m540.01,157.87v20.58h-2.29l-11.76-15.35v15.35h-2.8v-20.58h2.3l11.76,15.35v-15.35h2.8Z"/><path class="cls-1" d="m551.42,177.97c-1.37-.48-2.45-1.1-3.23-1.87l1.04-2.29c.75.71,1.7,1.28,2.87,1.72,1.17.44,2.37.66,3.6.66,1.62,0,2.84-.29,3.64-.87s1.21-1.35,1.21-2.31c0-.71-.22-1.28-.66-1.72-.44-.44-.98-.78-1.62-1.01-.64-.23-1.55-.5-2.73-.79-1.48-.37-2.67-.74-3.57-1.12-.91-.37-1.68-.95-2.32-1.72-.64-.77-.97-1.82-.97-3.13,0-1.1.28-2.09.83-2.97.55-.88,1.39-1.59,2.51-2.12,1.12-.53,2.51-.79,4.17-.79,1.16,0,2.3.16,3.42.47,1.12.31,2.08.76,2.88,1.35l-.92,2.35c-.82-.55-1.7-.96-2.63-1.25-.93-.28-1.85-.43-2.74-.43-1.59,0-2.78.3-3.57.91-.79.61-1.19,1.39-1.19,2.35,0,.71.22,1.28.67,1.72.45.44,1,.78,1.67,1.03s1.56.5,2.7.78c1.47.37,2.66.75,3.55,1.12.9.37,1.67.94,2.31,1.71.64.76.97,1.79.97,3.09,0,1.08-.28,2.06-.84,2.95-.56.89-1.41,1.6-2.55,2.12-1.14.52-2.54.78-4.2.78-1.48,0-2.9-.24-4.27-.72Z"/><path class="cls-1" d="m61.88,1.9c-.4,0-.81.15-1.14.48L13.92,49.46c-18.56,18.56-18.56,48.77,0,67.33l47.75,47.75c.44.44,1.01.66,1.58.66s1.14-.22,1.58-.66l46.98-46.98c8.44-8.44,13.91-19.57,14.62-31.49.83-13.81-4.17-26.93-13.86-36.61l-16.83-16.83c-.44-.44-1.01-.66-1.58-.66s-1.15.22-1.58.66l-27.47,27.47c-1.21,1.21-1.89,2.85-1.89,4.56l.02,25.21c0,1.4,1.15,2.33,2.34,2.33.57,0,1.15-.21,1.62-.67l27.69-27.25c9.92,11.1,9.56,28.21-1.1,38.87l-28.98,28.98c-.44.44-1.01.66-1.58.66s-1.14-.22-1.58-.66l-28.98-28.98c-10.98-10.99-11.02-28.9-.09-39.93.03-.03.06-.06.09-.1l29.4-29.4c.93-.94,1.46-2.2,1.46-3.53l-.03-26.67c0-.98-.8-1.62-1.63-1.62m-1.37,4.98l.03,23.31c0,.52-.21,1.03-.58,1.4l-29.39,29.39-.05.05-.05.05c-12.1,12.21-12.05,32.02.1,44.18l28.98,28.98c.99.99,2.31,1.53,3.71,1.53s2.71-.54,3.7-1.53l28.98-28.98c11.74-11.74,12.27-30.63,1.21-43l-2.1-2.35-2.25,2.21-26.53,26.11-.02-23.59c0-.92.36-1.78,1.01-2.43l26.92-26.92,16.29,16.29c9.15,9.15,13.76,21.33,12.98,34.3-.65,10.83-5.53,21.32-13.75,29.54l-46.44,46.44-47.21-47.21c-8.41-8.41-13.04-19.61-13.04-31.54s4.63-23.13,13.05-31.54L60.51,6.88Z"/><path class="cls-1" d="m63.28,165.2c.57,0,1.15-.22,1.58-.66l46.98-46.98c8.44-8.44,13.91-19.58,14.62-31.49.83-13.81-4.17-26.93-13.86-36.61l-16.83-16.83c-.87-.87-2.29-.87-3.16,0l-27.47,27.46c-1.21,1.21-1.89,2.85-1.89,4.57l.02,26.94c0,1.42,1.72,2.14,2.73,1.14l28.92-28.46c9.92,11.1,9.56,28.21-1.1,38.86l-28.98,28.98c-.43.43-1,.65-1.57.65v32.43Z"/><path class="cls-1" d="m241.34,85.43h-40.96c-.23,0-.39.22-.33.44l2.1,10.3c1.14,2.86,3.91,4.73,6.98,4.73h14.86c.19,0,.34.15.34.34v14.53c0,.1-.04.2-.12.27-4.81,4.17-11.61,6.25-20.41,6.25-5.78,0-11.11-1.4-15.97-4.19-4.87-2.79-8.77-6.74-11.71-11.85-2.94-5.11-4.41-11.08-4.41-17.93,0-6.17,1.23-11.88,3.69-17.13,2.46-5.25,5.97-9.47,10.55-12.65,4.58-3.18,10-4.77,16.26-4.77s11.3,1.35,15.4,4.05c4,2.64,7.52,6.1,10.55,10.39.12.17.35.19.5.06l12.35-10.96c.14-.12.16-.32.05-.46-3.83-5.29-8.86-9.78-15.07-13.48-6.31-3.76-14.24-5.64-23.78-5.64-7.32,0-14.02,1.33-20.09,3.97-6.07,2.65-11.3,6.31-15.68,10.99-4.39,4.68-7.78,10.1-10.19,16.26-2.41,6.17-3.61,12.77-3.61,19.81,0,9.35,2.02,17.8,6.07,25.37,4.05,7.57,9.83,13.57,17.35,18,7.52,4.43,16.53,6.65,27.03,6.65,9.73,0,17.66-1.35,23.78-4.05,6.06-2.67,10.96-5.77,14.71-9.29.07-.07.11-.16.11-.26v-39.4c0-.19-.15-.34-.34-.34"/><path class="cls-1" d="m292.06,67.65c-1.3-.19-2.77-.29-4.41-.29-3.66,0-6.82.56-9.47,1.66-2.65,1.11-4.87,2.41-6.65,3.9-1.79,1.49-3.21,2.91-4.26,4.26-.25-4.78-4.19-8.53-8.98-8.53h-7.79v67.8h17.06v-36.57c0-5.01,1.68-9.01,5.06-12,3.37-2.99,7.42-4.48,12.14-4.48,2.89,0,5.49.43,7.81,1.3l3.47-16.04c-1.35-.48-2.68-.82-3.97-1.01"/><path class="cls-1" d="m348.87,112.39c-1.4,3.33-3.52,6.1-6.36,8.31-2.85,2.22-6.43,3.32-10.77,3.32s-7.93-1.1-10.77-3.32c-2.84-2.22-4.97-4.99-6.36-8.31-1.4-3.33-2.1-6.63-2.1-9.9s.7-6.55,2.1-9.83c1.39-3.28,3.52-6.02,6.36-8.24,2.84-2.22,6.43-3.33,10.77-3.33s7.92,1.11,10.77,3.33c2.84,2.22,4.96,4.96,6.36,8.24,1.39,3.28,2.09,6.56,2.09,9.83s-.7,6.58-2.09,9.9m1.88-41.13c-5.45-3.27-11.78-4.91-19.01-4.91s-13.57,1.64-19.01,4.91c-5.45,3.28-9.71,7.66-12.79,13.16-3.08,5.49-4.62,11.52-4.62,18.07s1.54,12.57,4.62,18.07c3.08,5.49,7.35,9.9,12.79,13.23,5.45,3.33,11.78,4.99,19.01,4.99s13.56-1.66,19.01-4.99c5.44-3.33,9.71-7.73,12.79-13.23,3.08-5.5,4.63-11.52,4.63-18.07s-1.54-12.58-4.63-18.07c-3.09-5.5-7.35-9.88-12.79-13.16"/><path class="cls-1" d="m403.3,117.23l-14.3-38.15c-2.35-6.27-8.35-10.43-15.05-10.43h-8.53l28.77,67.8h17.35l28.62-67.8h-18.65l-18.21,48.57Z"/><path class="cls-1" d="m457.36,95.4c0-2.31.67-4.6,2.03-6.87,1.35-2.27,3.3-4.14,5.86-5.64,2.55-1.49,5.71-2.24,9.47-2.24,3.56,0,6.51.75,8.82,2.24,2.31,1.49,4.07,3.37,5.27,5.64,1.2,2.27,1.81,4.55,1.81,6.87h-33.25Zm43.37-16.84c-2.6-3.71-6.02-6.67-10.26-8.89-4.24-2.22-9.49-3.33-15.76-3.33-6.74,0-12.7,1.57-17.85,4.7-5.16,3.13-9.2,7.37-12.14,12.72-2.94,5.35-4.41,11.35-4.41,18,0,7.23,1.49,13.64,4.48,19.22,2.99,5.59,7.16,9.95,12.5,13.09,5.35,3.13,11.64,4.7,18.87,4.7,5.3,0,9.85-.56,13.66-1.66,3.81-1.11,6.94-2.41,9.4-3.9s4.34-2.89,5.64-4.19c1.3-1.3,2.1-2.09,2.39-2.38l-9.25-10.41c-.77.77-2.02,1.78-3.76,3.04-1.73,1.26-4.05,2.39-6.94,3.4-2.89,1.01-6.56,1.52-10.99,1.52-2.99,0-5.93-.7-8.82-2.09-2.89-1.4-5.27-3.33-7.16-5.78-1.88-2.46-2.82-5.32-2.82-8.6h50.6v-2.46c0-4.82-.58-9.54-1.73-14.17-1.16-4.63-3.04-8.79-5.64-12.51"/><path class="cls-1" d="m552.62,67.36c-3.66,0-6.82.56-9.47,1.66-2.65,1.11-4.87,2.41-6.65,3.9s-3.2,2.91-4.26,4.26c-.24-4.78-4.19-8.53-8.97-8.53h-7.8v67.8h17.06v-36.57c0-5.01,1.69-9.01,5.06-12,3.37-2.99,7.42-4.48,12.14-4.48,2.89,0,5.5.43,7.81,1.3l3.47-16.05c-1.35-.48-2.67-.82-3.97-1.01-1.3-.19-2.77-.29-4.41-.29"/><path class="cls-1" d="m251.33,40.85c0,4.44.92,7.73,2.78,9.88s4.7,3.21,8.57,3.21c2.22,0,4.13-.33,5.75-.99,1.61-.66,3.18-1.73,4.72-3.21l-3.25-4.36c-.85.84-1.73,1.48-2.66,1.9-.93.42-2.08.63-3.45.63-1.69,0-3-.56-3.92-1.67-.92-1.11-1.39-3.15-1.39-6.11v-18.16h10.79v-5.95h-10.79V3.97h-7.14v12.05h-6.66v5.95h6.66v18.88Z"/><path class="cls-1" d="m282.5,35.77c0-2.38.33-4.68.99-6.9.66-2.22,1.78-4.03,3.37-5.43,1.58-1.4,3.73-2.1,6.42-2.1s4.72.81,6.23,2.42c1.51,1.62,2.26,4.14,2.26,7.57v21.57h7.14v-22.13c0-4.76-1.16-8.55-3.49-11.38-2.33-2.83-5.9-4.24-10.71-4.24-2.27,0-4.22.35-5.83,1.03-1.61.69-2.93,1.52-3.97,2.5-1.03.98-1.86,1.92-2.5,2.82V0h-7.06v52.9h7.14v-17.13Z"/><path class="cls-1" d="m322.27,26.29c.87-1.56,2.13-2.84,3.77-3.84s3.59-1.51,5.87-1.51c3.28,0,5.81,1.01,7.61,3.02,1.8,2.01,2.8,4.44,3.02,7.3h-21.73c.11-1.75.6-3.4,1.47-4.96m.44,25.22c2.91,1.67,6.27,2.5,10.07,2.5,3.12,0,5.78-.41,7.97-1.23,2.19-.82,3.98-1.75,5.35-2.78,1.37-1.03,2.33-1.86,2.86-2.5l-4.05-4.28c-.85,1.01-2.29,2.04-4.32,3.09-2.03,1.06-4.61,1.59-7.73,1.59-2.11,0-4.08-.49-5.91-1.47-1.83-.98-3.29-2.33-4.4-4.05-1.11-1.72-1.7-3.66-1.75-5.83h29.11c0-3.75-.61-7.27-1.83-10.55-1.22-3.28-3.15-5.95-5.79-8.01-2.64-2.06-6.11-3.09-10.39-3.09-3.6,0-6.78.86-9.56,2.58-2.78,1.72-4.94,4.03-6.5,6.94-1.56,2.91-2.34,6.16-2.34,9.76,0,3.91.8,7.36,2.42,10.35,1.61,2.99,3.87,5.31,6.78,6.98"/><polygon class="cls-1" points="620.81 68.21 602.32 117.93 583.7 68.21 564.96 68.21 593.18 135.95 575.79 178.49 594.67 178.49 639.68 68.21 620.81 68.21"/></g></g></svg>