<?xml version="1.0" encoding="UTF-8"?><svg id="Layer_2" xmlns="http://www.w3.org/2000/svg" viewBox="0 0 637.91 178"><defs><style>.cls-1{fill:gray;}.cls-1,.cls-2,.cls-3{stroke-width:0px;}.cls-2{fill:#00dfc3;}.cls-3{fill:#007b98;}</style></defs><g id="Layer_1-2"><g id="color-logo"><path class="cls-3" d="m183.15,176.57c-1.58-.91-2.81-2.17-3.71-3.76-.9-1.6-1.34-3.4-1.34-5.4s.45-3.8,1.34-5.4c.9-1.6,2.14-2.85,3.72-3.76,1.59-.91,3.36-1.37,5.32-1.37,1.53,0,2.93.27,4.2.81,1.27.54,2.35,1.34,3.25,2.4l-1.82,1.85c-1.48-1.63-3.31-2.44-5.52-2.44-1.46,0-2.77.34-3.95,1.03-1.18.69-2.1,1.63-2.76,2.84-.66,1.21-.99,2.55-.99,4.04s.33,2.84.99,4.04c.66,1.21,1.58,2.15,2.76,2.84,1.18.69,2.49,1.03,3.95,1.03,2.18,0,4.02-.82,5.52-2.47l1.82,1.85c-.9,1.06-1.98,1.86-3.26,2.41s-2.68.82-4.21.82c-1.96,0-3.73-.46-5.31-1.37Z"/><path class="cls-3" d="m217.13,177.7l-4.23-6.32c-.52.04-.93.06-1.23.06h-4.84v6.26h-2.8v-20.58h7.64c2.54,0,4.54.64,5.99,1.91,1.46,1.27,2.18,3.03,2.18,5.26,0,1.59-.37,2.94-1.12,4.06-.75,1.12-1.81,1.93-3.19,2.44l4.65,6.91h-3.05Zm-1.48-9.97c.93-.8,1.4-1.95,1.4-3.44s-.47-2.63-1.4-3.43-2.29-1.19-4.06-1.19h-4.76v9.26h4.76c1.77,0,3.13-.4,4.06-1.21Z"/><path class="cls-3" d="m242.69,175.14v2.56h-14.22v-20.58h13.83v2.56h-11.03v6.32h9.83v2.5h-9.83v6.64h11.42Z"/><path class="cls-3" d="m263.8,172.56h-10.42l-2.16,5.15h-2.88l8.88-20.58h2.77l8.9,20.58h-2.94l-2.16-5.15Zm-.98-2.35l-4.23-10.08-4.23,10.08h8.46Z"/><path class="cls-3" d="m278.81,159.68h-6.72v-2.56h16.21v2.56h-6.72v18.02h-2.77v-18.02Z"/><path class="cls-3" d="m295.44,157.12h2.8v20.58h-2.8v-20.58Z"/><path class="cls-3" d="m325.04,157.12l-8.6,20.58h-2.77l-8.62-20.58h3.03l7.05,16.91,7.11-16.91h2.8Z"/><path class="cls-3" d="m345.84,175.14v2.56h-14.22v-20.58h13.83v2.56h-11.03v6.32h9.83v2.5h-9.83v6.64h11.42Z"/><path class="cls-3" d="m367.53,177.22c-1.37-.48-2.45-1.1-3.23-1.87l1.04-2.29c.75.71,1.7,1.28,2.87,1.72,1.17.44,2.37.66,3.6.66,1.62,0,2.84-.29,3.64-.87s1.2-1.35,1.2-2.31c0-.71-.22-1.28-.66-1.72-.44-.44-.98-.78-1.62-1.01-.64-.23-1.55-.5-2.73-.79-1.47-.37-2.66-.74-3.57-1.12-.9-.37-1.68-.95-2.32-1.72-.64-.77-.96-1.82-.96-3.13,0-1.1.28-2.09.83-2.97.55-.88,1.38-1.59,2.51-2.12,1.12-.53,2.51-.79,4.17-.79,1.16,0,2.29.16,3.42.47,1.12.31,2.08.76,2.88,1.35l-.92,2.35c-.82-.55-1.7-.96-2.63-1.25-.93-.28-1.85-.43-2.74-.43-1.59,0-2.78.3-3.57.91-.79.61-1.19,1.39-1.19,2.35,0,.71.22,1.28.67,1.72.45.44,1,.78,1.67,1.03.66.25,1.56.5,2.7.78,1.47.37,2.66.75,3.56,1.12.9.37,1.67.94,2.31,1.71.64.76.96,1.79.96,3.09,0,1.08-.28,2.06-.84,2.95-.56.89-1.41,1.6-2.55,2.12s-2.54.78-4.2.78c-1.47,0-2.9-.24-4.27-.72Z"/><path class="cls-3" d="m391.06,176.57c-1.59-.91-2.83-2.17-3.74-3.78-.91-1.61-1.36-3.4-1.36-5.38s.45-3.77,1.36-5.38c.91-1.61,2.15-2.87,3.74-3.78,1.59-.91,3.37-1.37,5.35-1.37s3.73.46,5.32,1.37c1.59.91,2.83,2.17,3.72,3.76.89,1.6,1.34,3.4,1.34,5.4s-.45,3.8-1.34,5.4c-.9,1.6-2.14,2.85-3.72,3.76-1.59.91-3.36,1.37-5.32,1.37s-3.76-.46-5.35-1.37Zm9.23-2.28c1.15-.69,2.05-1.63,2.71-2.84s.99-2.55.99-4.04-.33-2.84-.99-4.04-1.57-2.15-2.71-2.84-2.44-1.03-3.88-1.03-2.74.34-3.91,1.03c-1.17.69-2.08,1.63-2.74,2.84-.66,1.21-.99,2.55-.99,4.04s.33,2.84.99,4.04c.66,1.21,1.58,2.15,2.74,2.84,1.17.69,2.47,1.03,3.91,1.03s2.73-.34,3.88-1.03Z"/><path class="cls-3" d="m415.17,157.12h2.8v18.02h10.61v2.56h-13.41v-20.58Z"/><path class="cls-3" d="m437.57,175.58c-1.46-1.57-2.18-3.82-2.18-6.76v-11.7h2.8v11.58c0,4.41,1.84,6.62,5.52,6.62,1.79,0,3.16-.54,4.12-1.63.95-1.09,1.43-2.75,1.43-4.98v-11.58h2.72v11.7c0,2.96-.73,5.22-2.18,6.78-1.46,1.56-3.49,2.34-6.11,2.34s-4.65-.78-6.1-2.35Z"/><path class="cls-3" d="m465.32,159.68h-6.72v-2.56h16.21v2.56h-6.72v18.02h-2.77v-18.02Z"/><path class="cls-3" d="m481.95,157.12h2.8v20.58h-2.8v-20.58Z"/><path class="cls-3" d="m498.22,176.57c-1.59-.91-2.83-2.17-3.74-3.78-.91-1.61-1.36-3.4-1.36-5.38s.45-3.77,1.36-5.38c.9-1.61,2.15-2.87,3.74-3.78,1.59-.91,3.37-1.37,5.35-1.37s3.73.46,5.32,1.37c1.59.91,2.83,2.17,3.72,3.76.9,1.6,1.34,3.4,1.34,5.4s-.45,3.8-1.34,5.4c-.9,1.6-2.14,2.85-3.72,3.76-1.59.91-3.36,1.37-5.32,1.37s-3.76-.46-5.35-1.37Zm9.22-2.28c1.15-.69,2.05-1.63,2.72-2.84.66-1.21.99-2.55.99-4.04s-.33-2.84-.99-4.04c-.66-1.21-1.57-2.15-2.72-2.84s-2.44-1.03-3.88-1.03-2.74.34-3.91,1.03c-1.17.69-2.08,1.63-2.74,2.84s-.99,2.55-.99,4.04.33,2.84.99,4.04,1.58,2.15,2.74,2.84c1.17.69,2.47,1.03,3.91,1.03s2.73-.34,3.88-1.03Z"/><path class="cls-3" d="m539.18,157.12v20.58h-2.3l-11.76-15.35v15.35h-2.8v-20.58h2.29l11.76,15.35v-15.35h2.8Z"/><path class="cls-3" d="m550.59,177.22c-1.37-.48-2.45-1.1-3.23-1.87l1.04-2.29c.75.71,1.7,1.28,2.87,1.72,1.17.44,2.37.66,3.6.66,1.62,0,2.84-.29,3.64-.87s1.2-1.35,1.2-2.31c0-.71-.22-1.28-.66-1.72-.44-.44-.98-.78-1.62-1.01-.64-.23-1.55-.5-2.73-.79-1.47-.37-2.66-.74-3.57-1.12-.9-.37-1.68-.95-2.32-1.72-.64-.77-.96-1.82-.96-3.13,0-1.1.28-2.09.83-2.97.55-.88,1.38-1.59,2.51-2.12,1.12-.53,2.51-.79,4.17-.79,1.16,0,2.29.16,3.42.47,1.12.31,2.08.76,2.88,1.35l-.92,2.35c-.82-.55-1.7-.96-2.63-1.25-.93-.28-1.85-.43-2.74-.43-1.59,0-2.78.3-3.57.91-.79.61-1.19,1.39-1.19,2.35,0,.71.22,1.28.67,1.72.45.44,1,.78,1.67,1.03.66.25,1.56.5,2.7.78,1.47.37,2.66.75,3.56,1.12.9.37,1.67.94,2.31,1.71.64.76.96,1.79.96,3.09,0,1.08-.28,2.06-.84,2.95-.56.89-1.41,1.6-2.55,2.12s-2.54.78-4.2.78c-1.47,0-2.9-.24-4.27-.72Z"/><path class="cls-1" d="m240.67,85.19h-40.84c-.23,0-.39.22-.33.44l2.09,10.27c1.14,2.85,3.9,4.72,6.97,4.72h14.82c.19,0,.34.15.34.34v14.49c0,.1-.04.2-.12.27-4.8,4.16-11.58,6.24-20.35,6.24-5.77,0-11.08-1.39-15.93-4.18-4.85-2.79-8.75-6.73-11.68-11.82-2.93-5.09-4.4-11.05-4.4-17.88,0-6.15,1.22-11.84,3.68-17.08,2.45-5.24,5.96-9.44,10.52-12.61,4.56-3.17,9.97-4.76,16.22-4.76s11.27,1.35,15.35,4.04c3.99,2.63,7.5,6.08,10.52,10.36.12.16.35.19.5.06l12.31-10.93c.13-.12.16-.32.05-.46-3.82-5.27-8.83-9.75-15.02-13.44-6.3-3.75-14.2-5.62-23.71-5.62-7.3,0-13.98,1.32-20.04,3.96-6.06,2.64-11.27,6.3-15.64,10.96-4.37,4.66-7.76,10.07-10.16,16.22-2.4,6.15-3.6,12.74-3.6,19.75,0,9.32,2.02,17.76,6.05,25.3,4.04,7.55,9.8,13.53,17.3,17.95,7.5,4.42,16.48,6.63,26.96,6.63,9.71,0,17.61-1.35,23.71-4.04,6.04-2.66,10.93-5.75,14.67-9.27.07-.07.11-.16.11-.25v-39.3c0-.19-.15-.34-.34-.34Z"/><path class="cls-1" d="m291.25,67.46c-1.3-.19-2.76-.29-4.4-.29-3.65,0-6.8.55-9.44,1.66-2.64,1.11-4.85,2.4-6.63,3.89-1.78,1.49-3.2,2.91-4.25,4.25-.24-4.77-4.18-8.51-8.95-8.51h-7.77v67.61h17.01v-36.47c0-5,1.68-8.99,5.04-11.97,3.36-2.98,7.4-4.47,12.11-4.47,2.88,0,5.48.43,7.78,1.3l3.46-16c-1.35-.48-2.67-.82-3.96-1.01Z"/><path class="cls-1" d="m349.78,71.06c-5.43-3.27-11.75-4.9-18.96-4.9s-13.53,1.63-18.96,4.9c-5.43,3.27-9.68,7.64-12.76,13.12-3.08,5.48-4.61,11.49-4.61,18.02s1.54,12.54,4.61,18.02c3.07,5.48,7.33,9.87,12.76,13.19,5.43,3.32,11.75,4.97,18.96,4.97s13.53-1.66,18.96-4.97c5.43-3.32,9.68-7.71,12.76-13.19,3.07-5.48,4.61-11.48,4.61-18.02s-1.54-12.54-4.61-18.02c-3.08-5.48-7.33-9.85-12.76-13.12Zm-1.87,41.01c-1.39,3.32-3.51,6.08-6.34,8.29-2.84,2.21-6.42,3.32-10.74,3.32s-7.91-1.1-10.74-3.32c-2.84-2.21-4.95-4.97-6.34-8.29-1.39-3.32-2.09-6.61-2.09-9.87s.7-6.53,2.09-9.8c1.39-3.27,3.51-6,6.34-8.22,2.83-2.21,6.41-3.32,10.74-3.32s7.9,1.11,10.74,3.32c2.83,2.21,4.95,4.95,6.34,8.22,1.39,3.27,2.09,6.54,2.09,9.8s-.7,6.56-2.09,9.87Z"/><path class="cls-1" d="m402.18,116.9l-14.27-38.04c-2.35-6.25-8.32-10.4-15-10.4h-8.5l28.69,67.61h17.3l28.54-67.61h-18.6l-18.16,48.44Z"/><path class="cls-1" d="m499.34,78.34c-2.59-3.7-6.01-6.65-10.23-8.87-4.23-2.21-9.47-3.32-15.71-3.32-6.73,0-12.66,1.56-17.8,4.69-5.14,3.12-9.18,7.35-12.11,12.69-2.93,5.33-4.4,11.32-4.4,17.95,0,7.21,1.49,13.6,4.47,19.17,2.98,5.58,7.14,9.92,12.47,13.05,5.33,3.12,11.6,4.69,18.81,4.69,5.28,0,9.83-.55,13.62-1.66,3.8-1.1,6.92-2.4,9.37-3.89,2.45-1.49,4.32-2.88,5.62-4.18,1.3-1.3,2.09-2.09,2.38-2.38l-9.23-10.38c-.77.77-2.02,1.78-3.75,3.03-1.73,1.25-4.04,2.38-6.92,3.39-2.88,1.01-6.54,1.51-10.96,1.51-2.98,0-5.91-.7-8.79-2.09-2.88-1.39-5.26-3.32-7.13-5.77-1.88-2.45-2.81-5.31-2.81-8.58h50.46v-2.45c0-4.8-.58-9.51-1.73-14.13-1.15-4.61-3.03-8.77-5.62-12.47Zm-43.25,16.79c0-2.31.67-4.59,2.02-6.85,1.34-2.26,3.29-4.13,5.84-5.62,2.54-1.49,5.69-2.23,9.44-2.23,3.55,0,6.49.75,8.79,2.23,2.31,1.49,4.06,3.36,5.26,5.62,1.2,2.26,1.8,4.54,1.8,6.85h-33.16Z"/><path class="cls-1" d="m551.09,67.17c-3.65,0-6.8.55-9.44,1.66-2.64,1.11-4.85,2.4-6.63,3.89-1.78,1.49-3.2,2.91-4.25,4.25-.24-4.77-4.18-8.51-8.95-8.51h-7.77v67.61h17.01v-36.47c0-5,1.68-8.99,5.04-11.97,3.36-2.98,7.4-4.47,12.11-4.47,2.88,0,5.48.43,7.78,1.3l3.46-16c-1.35-.48-2.67-.82-3.96-1.01-1.3-.19-2.76-.29-4.4-.29Z"/><path class="cls-1" d="m250.63,40.73c0,4.43.92,7.71,2.77,9.85,1.84,2.14,4.69,3.2,8.54,3.2,2.21,0,4.13-.33,5.73-.99,1.61-.66,3.18-1.73,4.71-3.2l-3.24-4.35c-.84.84-1.73,1.48-2.65,1.9-.92.42-2.07.63-3.44.63-1.69,0-2.99-.55-3.92-1.66-.92-1.11-1.38-3.14-1.38-6.09v-18.11h10.76v-5.93h-10.76V3.95h-7.12v12.02h-6.64v5.93h6.64v18.82Z"/><path class="cls-1" d="m281.71,35.67c0-2.37.33-4.67.99-6.88.66-2.21,1.78-4.02,3.36-5.42,1.58-1.4,3.72-2.1,6.41-2.1s4.71.8,6.21,2.41c1.5,1.61,2.25,4.13,2.25,7.55v21.51h7.12v-22.07c0-4.75-1.16-8.53-3.48-11.35-2.32-2.82-5.88-4.23-10.68-4.23-2.27,0-4.21.34-5.81,1.03-1.61.69-2.93,1.52-3.95,2.49-1.03.98-1.86,1.91-2.49,2.81V0h-7.04v52.76h7.12v-17.08Z"/><path class="cls-1" d="m321.81,51.37c2.9,1.66,6.25,2.49,10.05,2.49,3.11,0,5.76-.41,7.95-1.23,2.19-.82,3.97-1.74,5.34-2.77,1.37-1.03,2.32-1.86,2.85-2.49l-4.03-4.27c-.84,1-2.28,2.03-4.31,3.08-2.03,1.06-4.6,1.58-7.71,1.58-2.11,0-4.07-.49-5.89-1.46-1.82-.97-3.28-2.32-4.39-4.03-1.11-1.71-1.69-3.65-1.74-5.81h29.03c0-3.74-.61-7.25-1.82-10.52-1.21-3.27-3.14-5.93-5.77-7.99-2.64-2.06-6.09-3.08-10.36-3.08-3.59,0-6.76.86-9.53,2.57-2.77,1.71-4.93,4.02-6.49,6.92-1.56,2.9-2.33,6.14-2.33,9.73,0,3.9.8,7.34,2.41,10.32,1.61,2.98,3.86,5.3,6.76,6.96Zm-.43-25.15c.87-1.55,2.12-2.83,3.76-3.84,1.63-1,3.58-1.5,5.85-1.5,3.27,0,5.8,1,7.59,3.01,1.79,2,2.79,4.43,3.01,7.28h-21.67c.1-1.74.59-3.39,1.46-4.94Z"/><polygon class="cls-1" points="619.09 68.02 600.65 117.6 582.08 68.02 563.39 68.02 591.53 135.57 574.2 178 593.03 178 637.91 68.02 619.09 68.02"/><path class="cls-2" d="m63.11,164.74c.57,0,1.14-.22,1.58-.65l46.85-46.85c8.42-8.42,13.87-19.52,14.58-31.4.82-13.77-4.16-26.85-13.82-36.51l-16.79-16.79c-.87-.87-2.28-.87-3.16,0l-27.39,27.39c-1.21,1.21-1.88,2.84-1.88,4.55l.02,26.86c0,1.42,1.71,2.13,2.72,1.14l28.84-28.38c9.9,11.07,9.53,28.13-1.09,38.76l-28.9,28.9c-.43.43-1,.65-1.56.65v32.34Z"/><path class="cls-3" d="m61.51,131.76l-28.9-28.9c-10.95-10.95-10.99-28.82-.09-39.82.03-.03.06-.06.09-.1l29.31-29.31c.93-.93,1.46-2.2,1.45-3.52l-.03-26.6c0-1.44-1.75-2.16-2.76-1.14L13.88,49.32c-18.51,18.51-18.51,48.63,0,67.15l47.62,47.62c.44.44,1.01.65,1.58.65,0,0,.02,0,.03,0v-32.34c-.57,0-1.16-.2-1.6-.65Z"/></g></g></svg>