<?xml version="1.0" encoding="UTF-8"?>
<svg id="Layer_1" xmlns="http://www.w3.org/2000/svg" version="1.1" viewBox="0 0 1538.7 1087.1">
  <!-- Generator: Adobe Illustrator 29.4.0, SVG Export Plug-In . SVG Version: 2.1.0 Build 152)  -->
  <defs>
    <style>
      .st0 {
        fill: #007b98;
      }

      .st1 {
        fill: #00dfc3;
      }
    </style>
  </defs>
  <path class="st1" d="M781.7,1025.4c3.4,0,6.8-1.3,9.3-3.9l277.3-277.3c49.8-49.8,82.1-115.5,86.3-185.8,4.9-81.5-24.6-158.9-81.8-216.1l-99.3-99.3c-5.2-5.2-13.5-5.2-18.7,0l-162.1,162.1c-7.1,7.1-11.2,16.8-11.1,26.9v158.9c.2,8.4,10.3,12.6,16.3,6.7l170.7-168c58.6,65.5,56.4,166.5-6.5,229.4l-171,171c-2.6,2.6-5.9,3.8-9.2,3.9v191.4Z"/>
  <path class="st0" d="M772.2,830.2l-171-171c-64.8-64.8-65.1-170.5-.5-235.6.2-.2.4-.4.5-.6l173.5-173.5c5.5-5.5,8.6-13,8.6-20.8l-.2-157.4c0-8.5-10.3-12.8-16.3-6.7l-276.3,277.8c-109.6,109.5-109.6,287.8,0,397.3l281.8,281.8c2.6,2.6,6,3.9,9.3,3.9s.1,0,.2,0v-191.4c-3.4,0-6.8-1.2-9.5-3.8Z"/>
</svg>